<svg width="90" height="25" viewBox="0 0 90 25" fill="none" xmlns="http://www.w3.org/2000/svg">
<g filter="url(#filter0_dd_4_216)">
<path d="M7.60156 0.296875V13.0703H15.4531V16H4.34375V0.296875H7.60156ZM23.9375 3.85938C25.0938 3.85938 26.0859 4.10938 26.9141 4.60938C27.7578 5.10938 28.3984 5.80469 28.8359 6.69531C29.2891 7.57031 29.5156 8.58594 29.5156 9.74219V11.0078H20.9375C21.0938 11.8047 21.4844 12.4453 22.1094 12.9297C22.7344 13.4141 23.5 13.6562 24.4062 13.6562C25.2656 13.6562 26.0469 13.4844 26.75 13.1406C27.4531 12.7969 28.0156 12.4453 28.4375 12.0859L28.4141 14.8516C28.0391 15.1797 27.4766 15.5156 26.7266 15.8594C25.9922 16.1875 25.1797 16.3516 24.2891 16.3516C23.1172 16.3516 22.0469 16.0859 21.0781 15.5547C20.125 15.0234 19.3594 14.2969 18.7812 13.375C18.2188 12.4531 17.9375 11.3984 17.9375 10.2109C17.9375 9.05469 18.1953 8 18.7109 7.04688C19.2266 6.09375 19.9375 5.32812 20.8438 4.75C21.75 4.15625 22.7812 3.85938 23.9375 3.85938ZM23.8672 6.46094C23.1328 6.46094 22.5156 6.6875 22.0156 7.14062C21.5156 7.59375 21.1719 8.20312 20.9844 8.96875H26.6562C26.5938 8.125 26.2812 7.5 25.7188 7.09375C25.1562 6.67188 24.5391 6.46094 23.8672 6.46094ZM36.0547 3.85938C36.7891 3.85938 37.4688 3.96875 38.0938 4.1875C38.7188 4.40625 39.2031 4.65625 39.5469 4.9375V7.5625C39.1719 7.3125 38.7109 7.07031 38.1641 6.83594C37.6328 6.60156 37.0781 6.48438 36.5 6.48438C35.9375 6.48438 35.4922 6.60938 35.1641 6.85938C34.8359 7.10938 34.6719 7.40625 34.6719 7.75C34.6719 8 34.7656 8.23438 34.9531 8.45312C35.1406 8.65625 35.5 8.83594 36.0312 8.99219L37.3672 9.4375C39.1641 9.96875 40.0625 11.0078 40.0625 12.5547C40.0625 13.2891 39.8516 13.9453 39.4297 14.5234C39.0234 15.0859 38.4688 15.5312 37.7656 15.8594C37.0781 16.1875 36.3125 16.3516 35.4688 16.3516C34.6719 16.3516 33.8984 16.2266 33.1484 15.9766C32.3984 15.7266 31.8281 15.4531 31.4375 15.1562V12.5547C31.7344 12.7578 32.0938 12.9531 32.5156 13.1406C32.9375 13.3281 33.375 13.4844 33.8281 13.6094C34.2812 13.7188 34.6953 13.7734 35.0703 13.7734C35.6641 13.7734 36.1172 13.6719 36.4297 13.4688C36.7578 13.25 36.9219 12.9453 36.9219 12.5547C36.9219 12.2578 36.7891 12.0234 36.5234 11.8516C36.2578 11.6797 35.8672 11.5078 35.3516 11.3359L33.8984 10.8203C32.9922 10.5234 32.3672 10.1016 32.0234 9.55469C31.6797 9.00781 31.5078 8.35938 31.5078 7.60938C31.5078 6.85938 31.6953 6.21094 32.0703 5.66406C32.4609 5.10156 33 4.66406 33.6875 4.35156C34.375 4.02344 35.1641 3.85938 36.0547 3.85938ZM46.4141 3.85938C47.1484 3.85938 47.8281 3.96875 48.4531 4.1875C49.0781 4.40625 49.5625 4.65625 49.9062 4.9375V7.5625C49.5312 7.3125 49.0703 7.07031 48.5234 6.83594C47.9922 6.60156 47.4375 6.48438 46.8594 6.48438C46.2969 6.48438 45.8516 6.60938 45.5234 6.85938C45.1953 7.10938 45.0312 7.40625 45.0312 7.75C45.0312 8 45.125 8.23438 45.3125 8.45312C45.5 8.65625 45.8594 8.83594 46.3906 8.99219L47.7266 9.4375C49.5234 9.96875 50.4219 11.0078 50.4219 12.5547C50.4219 13.2891 50.2109 13.9453 49.7891 14.5234C49.3828 15.0859 48.8281 15.5312 48.125 15.8594C47.4375 16.1875 46.6719 16.3516 45.8281 16.3516C45.0312 16.3516 44.2578 16.2266 43.5078 15.9766C42.7578 15.7266 42.1875 15.4531 41.7969 15.1562V12.5547C42.0938 12.7578 42.4531 12.9531 42.875 13.1406C43.2969 13.3281 43.7344 13.4844 44.1875 13.6094C44.6406 13.7188 45.0547 13.7734 45.4297 13.7734C46.0234 13.7734 46.4766 13.6719 46.7891 13.4688C47.1172 13.25 47.2812 12.9453 47.2812 12.5547C47.2812 12.2578 47.1484 12.0234 46.8828 11.8516C46.6172 11.6797 46.2266 11.5078 45.7109 11.3359L44.2578 10.8203C43.3516 10.5234 42.7266 10.1016 42.3828 9.55469C42.0391 9.00781 41.8672 8.35938 41.8672 7.60938C41.8672 6.85938 42.0547 6.21094 42.4297 5.66406C42.8203 5.10156 43.3594 4.66406 44.0469 4.35156C44.7344 4.02344 45.5234 3.85938 46.4141 3.85938ZM58.4609 3.85938C59.6172 3.85938 60.6719 4.14062 61.625 4.70312C62.5781 5.25 63.3438 6 63.9219 6.95312C64.5156 7.89062 64.8125 8.94531 64.8125 10.1172C64.8125 11.2891 64.5156 12.3438 63.9219 13.2812C63.3438 14.2188 62.5781 14.9688 61.625 15.5312C60.6719 16.0781 59.6172 16.3516 58.4609 16.3516C57.3203 16.3516 56.2656 16.0781 55.2969 15.5312C54.3438 14.9688 53.5781 14.2188 53 13.2812C52.4219 12.3438 52.1328 11.2891 52.1328 10.1172C52.1328 8.94531 52.4219 7.89062 53 6.95312C53.5781 6 54.3438 5.25 55.2969 4.70312C56.2656 4.14062 57.3203 3.85938 58.4609 3.85938ZM58.4609 6.74219C57.8984 6.74219 57.375 6.875 56.8906 7.14062C56.4062 7.40625 56.0156 7.78906 55.7188 8.28906C55.4375 8.78906 55.2969 9.39844 55.2969 10.1172C55.2969 10.8359 55.4375 11.4453 55.7188 11.9453C56.0156 12.4453 56.4062 12.8281 56.8906 13.0938C57.375 13.3438 57.8984 13.4688 58.4609 13.4688C59.0234 13.4688 59.5469 13.3438 60.0312 13.0938C60.5156 12.8281 60.9062 12.4453 61.2031 11.9453C61.5 11.4453 61.6484 10.8359 61.6484 10.1172C61.6484 9.39844 61.5 8.78906 61.2031 8.28906C60.9062 7.78906 60.5156 7.40625 60.0312 7.14062C59.5469 6.875 59.0234 6.74219 58.4609 6.74219ZM70.6016 4.16406V5.85156C70.9609 5.36719 71.4453 4.91406 72.0547 4.49219C72.6797 4.07031 73.3906 3.85938 74.1875 3.85938C75.3906 3.85938 76.3984 4.26562 77.2109 5.07812C78.0234 5.89062 78.4297 7.10938 78.4297 8.73438V16H75.4531L75.4297 9.13281C75.4297 8.33594 75.2344 7.74219 74.8438 7.35156C74.4688 6.96094 73.9453 6.76562 73.2734 6.76562C72.7422 6.76562 72.2422 6.9375 71.7734 7.28125C71.3203 7.625 70.9297 8.03125 70.6016 8.5V16H67.625V4.16406H70.6016Z" fill="#171100"/>
<path d="M83.2578 12.6719C83.7734 12.6719 84.2109 12.8594 84.5703 13.2344C84.9453 13.5938 85.1328 14.0312 85.1328 14.5469C85.1328 15.0625 84.9453 15.5078 84.5703 15.8828C84.2109 16.2422 83.7734 16.4219 83.2578 16.4219C82.7422 16.4219 82.2969 16.2422 81.9219 15.8828C81.5625 15.5078 81.3828 15.0625 81.3828 14.5469C81.3828 14.0312 81.5625 13.5938 81.9219 13.2344C82.2969 12.8594 82.7422 12.6719 83.2578 12.6719Z" fill="#FFB900"/>
</g>
<defs>
<filter id="filter0_dd_4_216" x="0.34375" y="0.296875" width="88.7891" height="24.125" filterUnits="userSpaceOnUse" color-interpolation-filters="sRGB">
<feFlood flood-opacity="0" result="BackgroundImageFix"/>
<feColorMatrix in="SourceAlpha" type="matrix" values="0 0 0 0 0 0 0 0 0 0 0 0 0 0 0 0 0 0 127 0" result="hardAlpha"/>
<feOffset dy="4"/>
<feGaussianBlur stdDeviation="2"/>
<feComposite in2="hardAlpha" operator="out"/>
<feColorMatrix type="matrix" values="0 0 0 0 0 0 0 0 0 0 0 0 0 0 0 0 0 0 0.25 0"/>
<feBlend mode="normal" in2="BackgroundImageFix" result="effect1_dropShadow_4_216"/>
<feColorMatrix in="SourceAlpha" type="matrix" values="0 0 0 0 0 0 0 0 0 0 0 0 0 0 0 0 0 0 127 0" result="hardAlpha"/>
<feOffset dy="4"/>
<feGaussianBlur stdDeviation="2"/>
<feComposite in2="hardAlpha" operator="out"/>
<feColorMatrix type="matrix" values="0 0 0 0 0 0 0 0 0 0 0 0 0 0 0 0 0 0 0.25 0"/>
<feBlend mode="normal" in2="effect1_dropShadow_4_216" result="effect2_dropShadow_4_216"/>
<feBlend mode="normal" in="SourceGraphic" in2="effect2_dropShadow_4_216" result="shape"/>
</filter>
</defs>
</svg>
